<svg width="2500" height="889" viewBox="0 0 2500 889" fill="none" xmlns="http://www.w3.org/2000/svg">
<g clip-path="url(#clip0_923_4)">
<path d="M148.239 697.339C162.647 650.825 179.345 606.59 194.617 560.941C93.4085 383.935 218.655 184.661 388.301 168.112C548.472 152.479 679.801 267.53 680.198 424.546C680.618 590.216 519.942 729.333 339.196 672.789C325.569 668.528 308.695 654.629 292.822 653.688C270.634 652.387 241.563 668.312 219.163 675.507C194.613 683.412 173.266 691.324 148.239 697.339ZM298.28 604.587C444.233 693.162 619 593.816 633.82 449.093C647.242 318.076 542.634 201.507 401.939 211.754C241.331 223.451 144.844 415.176 243.718 555.483C234.85 579.803 226.662 604.365 219.163 629.142C245.964 621.381 270.666 611.527 298.28 604.587Z" fill="white"/>
<path d="M219.171 629.134C226.664 604.356 234.851 579.793 243.721 555.475C144.847 415.168 241.331 223.447 401.947 211.746C542.638 201.499 647.246 318.068 633.828 449.085C619 593.808 444.232 693.15 298.284 604.579C270.666 611.527 245.964 621.381 219.171 629.134ZM292.826 397.261C316.231 463.084 413.219 552.239 483.783 555.483C517.235 557.028 556.777 539.67 554.711 492.739C534.569 478.324 511.348 466.984 486.51 457.281C474.621 469.034 465.279 483.325 451.052 492.739C408.254 473.699 375.427 444.696 355.569 402.715C394.671 381.388 370.922 333.889 355.569 301.779C294.908 283.503 278.935 358.203 292.826 397.261Z" fill="url(#paint0_linear_923_4)"/>
<path d="M355.57 301.779C370.922 333.893 394.671 381.388 355.57 402.715C375.427 444.696 408.258 473.699 451.052 492.74C465.287 483.322 474.629 469.03 486.51 457.282C511.353 466.996 534.569 478.328 554.711 492.74C556.781 539.67 517.235 557.029 483.783 555.483C413.219 552.232 316.227 463.084 292.826 397.261C278.935 358.204 294.908 283.503 355.57 301.779Z" fill="white"/>
<path d="M806.905 566.791L750.141 329.008H799.281L835.132 492.343L878.598 329.008H935.688L977.38 495.102L1013.88 329.008H1062.21L1004.46 566.791H953.527L906.172 389.021L858.977 566.791H806.905ZM1128.47 329.008V416.434C1143.18 399.24 1160.75 390.646 1181.19 390.646C1191.67 390.646 1201.13 392.584 1209.58 396.477C1218.01 400.377 1224.36 405.35 1228.64 411.405C1232.9 417.444 1235.88 424.288 1237.4 431.518C1238.96 438.878 1239.75 450.29 1239.75 465.747V566.795H1194.17V475.798C1194.17 457.742 1193.3 446.274 1191.57 441.417C1189.91 436.632 1186.68 432.548 1182.42 429.82C1178.04 426.957 1172.55 425.52 1165.95 425.52C1158.39 425.52 1151.64 427.362 1145.68 431.034C1139.74 434.706 1135.39 440.256 1132.63 447.659C1129.87 455.071 1128.5 466.015 1128.5 480.499V566.791H1082.91V329.008H1128.47ZM1316.7 447.091L1275.35 439.631C1280 422.981 1288 410.652 1299.35 402.647C1310.71 394.643 1327.58 390.65 1349.96 390.65C1370.29 390.65 1385.42 393.053 1395.38 397.858C1405.32 402.675 1412.33 408.786 1416.39 416.19C1420.44 423.598 1422.47 437.2 1422.47 456.989L1421.98 510.187C1421.98 525.327 1422.71 536.487 1424.18 543.682C1425.63 550.878 1428.36 558.574 1432.36 566.791H1387.27C1386.07 563.768 1384.62 559.279 1382.89 553.337C1382.14 550.626 1381.6 548.844 1381.27 547.979C1373.49 555.547 1365.17 561.225 1356.3 565.009C1347.42 568.797 1337.97 570.683 1327.9 570.683C1310.17 570.683 1296.19 565.878 1285.98 556.252C1275.76 546.63 1270.65 534.465 1270.65 519.757C1270.65 510.022 1272.97 501.341 1277.62 493.721C1282.28 486.097 1288.78 480.258 1297.17 476.202C1305.54 472.146 1317.62 468.61 1333.42 465.583C1354.72 461.578 1369.48 457.846 1377.7 454.387V449.854C1377.7 441.092 1375.54 434.842 1371.21 431.114C1366.89 427.382 1358.72 425.516 1346.72 425.516C1338.62 425.516 1332.29 427.113 1327.74 430.305C1323.2 433.492 1319.52 439.09 1316.7 447.091ZM1377.7 484.071C1371.86 486.013 1362.61 488.335 1349.96 491.05C1337.31 493.753 1329.04 496.4 1325.15 498.995C1319.2 503.211 1316.22 508.565 1316.22 515.052C1316.22 521.435 1318.61 526.948 1323.36 531.597C1328.12 536.25 1334.17 538.581 1341.53 538.581C1349.74 538.581 1357.58 535.87 1365.04 530.472C1370.56 526.364 1374.18 521.334 1375.91 515.388C1377.1 511.492 1377.7 504.096 1377.7 493.168L1377.7 484.071ZM1543.06 394.539V430.878H1511.93V500.292C1511.93 514.359 1512.22 522.548 1512.83 524.87C1513.41 527.201 1514.76 529.119 1516.88 530.632C1518.98 532.138 1521.56 532.899 1524.58 532.899C1528.8 532.899 1534.91 531.437 1542.91 528.526L1546.8 563.876C1536.2 568.421 1524.2 570.691 1510.8 570.691C1502.57 570.691 1495.17 569.31 1488.57 566.559C1481.98 563.804 1477.14 560.232 1474.05 555.859C1470.97 551.471 1468.83 545.56 1467.65 538.092C1466.67 532.795 1466.18 522.091 1466.18 505.974V430.878H1445.26V394.535H1466.18V360.31L1511.93 333.709V394.531H1543.06V394.539ZM1555.31 517.651L1601.06 510.675C1603 519.537 1606.96 526.268 1612.89 530.861C1618.84 535.458 1627.16 537.76 1637.87 537.76C1649.66 537.76 1658.53 535.594 1664.47 531.265C1668.48 528.238 1670.48 524.182 1670.48 519.104C1670.48 515.64 1669.39 512.777 1667.23 510.507C1664.97 508.341 1659.87 506.338 1651.98 504.5C1615.21 496.392 1591.91 488.992 1582.07 482.281C1568.44 472.991 1561.63 460.061 1561.63 443.519C1561.63 428.591 1567.52 416.046 1579.31 405.887C1591.09 395.724 1609.37 390.638 1634.13 390.638C1657.7 390.638 1675.22 394.478 1686.68 402.155C1698.13 409.831 1706.04 421.187 1710.36 436.211L1667.38 444.16C1665.54 437.461 1662.05 432.319 1656.92 428.755C1651.79 425.187 1644.46 423.397 1634.95 423.397C1622.94 423.397 1614.35 425.075 1609.17 428.427C1605.7 430.805 1603.97 433.889 1603.97 437.673C1603.97 440.92 1605.48 443.675 1608.51 445.938C1612.62 448.969 1626.81 453.241 1651.09 458.763C1675.36 464.277 1692.31 471.033 1701.94 479.033C1711.46 487.138 1716.21 498.446 1716.21 512.929C1716.21 528.722 1709.62 542.293 1696.42 553.641C1683.23 564.997 1663.72 570.671 1637.87 570.671C1614.42 570.671 1595.83 565.914 1582.15 556.404C1568.48 546.898 1559.53 533.98 1555.31 517.651ZM1967.55 566.791H1915.32L1894.56 512.781H1799.52L1779.88 566.791H1728.95L1821.57 329.008H1872.34L1967.55 566.791ZM1879.14 472.722L1846.38 384.48L1814.26 472.722H1879.14ZM1988.07 394.539H2030.57V419.846C2036.08 411.192 2043.54 404.169 2052.95 398.759C2062.36 393.357 2072.79 390.654 2084.25 390.654C2104.26 390.654 2121.23 398.495 2135.19 414.18C2149.13 429.856 2156.11 451.704 2156.11 479.702C2156.11 508.469 2149.08 530.821 2135.03 546.774C2120.97 562.719 2103.93 570.691 2083.93 570.691C2074.41 570.691 2065.79 568.809 2058.05 565.017C2050.31 561.237 2042.18 554.754 2033.63 545.556V632.329H1988.06V394.539H1988.07ZM2033.16 477.748C2033.16 497.104 2037 511.408 2044.68 520.654C2052.35 529.904 2061.7 534.529 2072.74 534.529C2083.34 534.529 2092.15 530.28 2099.18 521.787C2106.21 513.302 2109.73 499.379 2109.73 480.022C2109.73 461.971 2106.11 448.552 2098.85 439.799C2091.61 431.038 2082.63 426.661 2071.93 426.661C2060.79 426.661 2051.54 430.958 2044.18 439.555C2036.84 448.148 2033.16 460.882 2033.16 477.748ZM2187.66 394.539H2230.16V419.846C2235.67 411.192 2243.13 404.169 2252.54 398.759C2261.95 393.357 2272.38 390.654 2283.84 390.654C2303.85 390.654 2320.82 398.495 2334.78 414.18C2348.72 429.856 2355.7 451.704 2355.7 479.702C2355.7 508.469 2348.67 530.821 2334.62 546.774C2320.56 562.719 2303.53 570.691 2283.52 570.691C2274.01 570.691 2265.38 568.809 2257.65 565.017C2249.9 561.237 2241.78 554.754 2233.23 545.556V632.329H2187.65L2187.66 394.539ZM2232.75 477.748C2232.75 497.104 2236.59 511.408 2244.27 520.654C2251.95 529.904 2261.3 534.529 2272.33 534.529C2282.92 534.529 2291.75 530.28 2298.77 521.787C2305.8 513.302 2309.31 499.379 2309.31 480.022C2309.31 461.971 2305.7 448.552 2298.44 439.799C2291.2 431.038 2282.22 426.661 2271.52 426.661C2260.38 426.661 2251.13 430.958 2243.78 439.555C2236.43 448.152 2232.75 460.882 2232.75 477.748Z" fill="white"/>
</g>
<defs>
<linearGradient id="paint0_linear_923_4" x1="419.358" y1="638.067" x2="419.358" y2="211.118" gradientUnits="userSpaceOnUse">
<stop stop-color="#64D840"/>
<stop offset="0.503" stop-color="#12A100"/>
<stop offset="1" stop-color="#64D840"/>
</linearGradient>
<clipPath id="clip0_923_4">
<rect width="2500" height="889" fill="white"/>
</clipPath>
</defs>
</svg>
